<svg width="278" height="20" viewBox="0 0 278 20" fill="none" xmlns="http://www.w3.org/2000/svg">
<path d="M2.5 17.5V15H0V12.5H5V15H12.5V0H17.5V15H15V17.5H2.5ZM22.5 17.5V15H20V12.5H25V15H32.5V10H22.5V7.5H20V2.5H22.5V0H35V2.5H37.5V5H32.5V2.5H25V7.5H35V10H37.5V15H35V17.5H22.5ZM40 20V17.5H57.5V20H40ZM65 17.5V15H62.5V12.5H60V5H62.5V2.5H65V0H75V2.5H77.5V5H72.5V2.5H67.5V5H65V12.5H67.5V15H72.5V12.5H77.5V15H75V17.5H65ZM82.5 17.5V15H80V2.5H82.5V0H95V2.5H97.5V15H95V17.5H82.5ZM85 15H92.5V2.5H85V15ZM102.5 17.5V15H100V0H105V15H112.5V0H117.5V15H115V17.5H102.5ZM120 17.5V0H125V2.5H127.5V5H130V7.5H132.5V0H137.5V17.5H132.5V12.5H130V10H127.5V7.5H125V17.5H120ZM147.5 17.5V2.5H142.5V0H157.5V2.5H152.5V17.5H147.5ZM160 17.5V0H177.5V2.5H165V7.5H175V10H165V15H177.5V17.5H160ZM180 17.5V0H195V2.5H197.5V10H192.5V12.5H195V15H197.5V17.5H190V15H187.5V12.5H185V17.5H180ZM185 10H190V7.5H192.5V2.5H185V10ZM205 17.5V12.5H210V17.5H205ZM222.5 17.5V15H220V7.5H222.5V5H235V7.5H237.5V12.5H225V15H235V17.5H222.5ZM225 10H232.5V7.5H225V10ZM240 17.5V15H242.5V12.5H245V10H242.5V7.5H240V5H245V7.5H247.5V10H250V7.5H252.5V5H257.5V7.5H255V10H252.5V12.5H255V15H257.5V17.5H252.5V15H250V12.5H247.5V15H245V17.5H240ZM262.5 17.5V15H260V7.5H262.5V5H275V7.5H277.5V12.5H265V15H275V17.5H262.5ZM265 10H272.5V7.5H265V10Z" fill="#8FED89"/>
</svg>
