<svg width="288" height="104" viewBox="0 0 288 104" fill="none" xmlns="http://www.w3.org/2000/svg">
<path d="M3.68 22V7.42H10.2C11.6 7.42 12.6733 7.76667 13.42 8.46C14.18 9.14 14.56 10.04 14.56 11.16C14.56 11.6933 14.4667 12.1867 14.28 12.64C14.0933 13.08 13.8133 13.4533 13.44 13.76C13.0667 14.0667 12.5933 14.2867 12.02 14.42V14.5C12.6867 14.62 13.2333 14.8467 13.66 15.18C14.0867 15.5 14.4067 15.9 14.62 16.38C14.8333 16.8467 14.94 17.3667 14.94 17.94C14.94 18.7933 14.74 19.5267 14.34 20.14C13.9533 20.74 13.3933 21.2 12.66 21.52C11.94 21.84 11.0667 22 10.04 22H3.68ZM5.34 20.62H9.9C11.0067 20.62 11.8333 20.36 12.38 19.84C12.9267 19.32 13.2 18.6533 13.2 17.84C13.2 17 12.9333 16.3533 12.4 15.9C11.8667 15.4333 11.1267 15.2 10.18 15.2H5.12V13.86H10.1C10.7133 13.86 11.22 13.76 11.62 13.56C12.02 13.3467 12.32 13.0533 12.52 12.68C12.7333 12.3067 12.84 11.8733 12.84 11.38C12.84 10.5533 12.5667 9.92 12.02 9.48C11.4867 9.02667 10.7667 8.8 9.86 8.8H5.34V20.62ZM21.7002 22.18C20.7002 22.18 19.8402 21.96 19.1202 21.52C18.4135 21.08 17.8735 20.4533 17.5002 19.64C17.1268 18.8267 16.9402 17.88 16.9402 16.8C16.9402 15.6933 17.1268 14.7333 17.5002 13.92C17.8735 13.0933 18.4068 12.46 19.1002 12.02C19.7935 11.5667 20.6402 11.34 21.6402 11.34C22.7068 11.34 23.5868 11.58 24.2802 12.06C24.9735 12.54 25.4735 13.2067 25.7802 14.06C26.1002 14.9133 26.2202 15.9 26.1402 17.02H18.5202C18.5335 17.8867 18.6668 18.6133 18.9202 19.2C19.1868 19.7733 19.5535 20.2067 20.0202 20.5C20.5002 20.78 21.0602 20.92 21.7002 20.92C22.4468 20.92 23.0602 20.7467 23.5402 20.4C24.0202 20.0533 24.3402 19.5933 24.5002 19.02H26.0602C25.9402 19.6867 25.6735 20.26 25.2602 20.74C24.8602 21.2067 24.3535 21.5667 23.7402 21.82C23.1268 22.06 22.4468 22.18 21.7002 22.18ZM18.5402 16.1L18.3602 15.86H24.7402L24.5602 16.14C24.5735 15.3 24.4602 14.6267 24.2202 14.12C23.9802 13.6 23.6335 13.22 23.1802 12.98C22.7402 12.7267 22.2268 12.6 21.6402 12.6C21.0268 12.6 20.4935 12.7333 20.0402 13C19.5868 13.2667 19.2268 13.66 18.9602 14.18C18.7068 14.6867 18.5668 15.3267 18.5402 16.1ZM28.4028 22V11.5H29.9428L30.0028 13.68H30.1228C30.4428 12.9067 30.9361 12.3267 31.6028 11.94C32.2695 11.54 32.9961 11.34 33.7828 11.34C34.3295 11.34 34.8295 11.42 35.2828 11.58C35.7495 11.74 36.1495 12 36.4828 12.36C36.8295 12.72 37.0961 13.1867 37.2828 13.76C37.4695 14.32 37.5628 15.0067 37.5628 15.82V22H35.9428V16.14C35.9428 15.3533 35.8428 14.7067 35.6428 14.2C35.4561 13.6933 35.1628 13.32 34.7628 13.08C34.3761 12.8267 33.8761 12.7 33.2628 12.7C32.6095 12.7 32.0361 12.86 31.5428 13.18C31.0495 13.5 30.6695 13.9333 30.4028 14.48C30.1361 15.0133 30.0028 15.6267 30.0028 16.32V22H28.4028ZM42.8802 22L39.0802 11.5H40.8202L42.8602 17.66L43.8602 20.72H43.9402L44.9402 17.66L46.9802 11.5H48.7202L44.9202 22H42.8802ZM54.5322 22.18C53.5322 22.18 52.6722 21.96 51.9522 21.52C51.2455 21.08 50.7055 20.4533 50.3322 19.64C49.9589 18.8267 49.7722 17.88 49.7722 16.8C49.7722 15.6933 49.9589 14.7333 50.3322 13.92C50.7055 13.0933 51.2389 12.46 51.9322 12.02C52.6255 11.5667 53.4722 11.34 54.4722 11.34C55.5389 11.34 56.4189 11.58 57.1122 12.06C57.8055 12.54 58.3055 13.2067 58.6122 14.06C58.9322 14.9133 59.0522 15.9 58.9722 17.02H51.3522C51.3655 17.8867 51.4989 18.6133 51.7522 19.2C52.0189 19.7733 52.3855 20.2067 52.8522 20.5C53.3322 20.78 53.8922 20.92 54.5322 20.92C55.2789 20.92 55.8922 20.7467 56.3722 20.4C56.8522 20.0533 57.1722 19.5933 57.3322 19.02H58.8922C58.7722 19.6867 58.5055 20.26 58.0922 20.74C57.6922 21.2067 57.1855 21.5667 56.5722 21.82C55.9589 22.06 55.2789 22.18 54.5322 22.18ZM51.3722 16.1L51.1922 15.86H57.5722L57.3922 16.14C57.4055 15.3 57.2922 14.6267 57.0522 14.12C56.8122 13.6 56.4655 13.22 56.0122 12.98C55.5722 12.7267 55.0589 12.6 54.4722 12.6C53.8589 12.6 53.3255 12.7333 52.8722 13C52.4189 13.2667 52.0589 13.66 51.7922 14.18C51.5389 14.6867 51.3989 15.3267 51.3722 16.1ZM61.2348 22V11.5H62.7748L62.8348 13.68H62.9548C63.2748 12.9067 63.7682 12.3267 64.4348 11.94C65.1015 11.54 65.8282 11.34 66.6148 11.34C67.1615 11.34 67.6615 11.42 68.1148 11.58C68.5815 11.74 68.9815 12 69.3148 12.36C69.6615 12.72 69.9282 13.1867 70.1148 13.76C70.3015 14.32 70.3948 15.0067 70.3948 15.82V22H68.7748V16.14C68.7748 15.3533 68.6748 14.7067 68.4748 14.2C68.2882 13.6933 67.9948 13.32 67.5948 13.08C67.2082 12.8267 66.7082 12.7 66.0948 12.7C65.4415 12.7 64.8682 12.86 64.3748 13.18C63.8815 13.5 63.5015 13.9333 63.2348 14.48C62.9682 15.0133 62.8348 15.6267 62.8348 16.32V22H61.2348ZM76.847 22.18C76.0604 22.18 75.3804 22.0267 74.807 21.72C74.2337 21.4 73.7937 20.9267 73.487 20.3C73.1937 19.66 73.047 18.8733 73.047 17.94V11.5H74.667V17.54C74.667 18.2333 74.7604 18.8267 74.947 19.32C75.1337 19.8 75.427 20.1667 75.827 20.42C76.2404 20.6733 76.767 20.8 77.407 20.8C78.0337 20.8 78.587 20.6467 79.067 20.34C79.547 20.0333 79.9204 19.6 80.187 19.04C80.4537 18.48 80.587 17.8333 80.587 17.1V11.5H82.207V22H80.667L80.587 19.76H80.467C80.2004 20.5067 79.7404 21.1 79.087 21.54C78.4337 21.9667 77.687 22.18 76.847 22.18ZM88.4188 22C87.6854 22 87.1254 21.8267 86.7388 21.48C86.3654 21.12 86.1788 20.54 86.1788 19.74V12.84H84.1388V11.5H86.1788V8.36L87.7788 8.14V11.5H90.2188V12.84H87.7988V19.48C87.7988 19.88 87.8921 20.1733 88.0788 20.36C88.2654 20.5333 88.5388 20.62 88.8988 20.62H90.2588V22H88.4188ZM96.6123 22.18C95.8523 22.18 95.159 22.0533 94.5323 21.8C93.919 21.5467 93.3857 21.18 92.9323 20.7C92.4923 20.22 92.1457 19.6533 91.8923 19C91.6523 18.3333 91.5323 17.5933 91.5323 16.78C91.5323 15.7 91.739 14.7533 92.1523 13.94C92.5657 13.1267 93.1523 12.4933 93.9123 12.04C94.6857 11.5733 95.5857 11.34 96.6123 11.34C97.3723 11.34 98.059 11.4667 98.6723 11.72C99.299 11.96 99.8323 12.32 100.272 12.8C100.712 13.28 101.052 13.8533 101.292 14.52C101.532 15.1867 101.652 15.9333 101.652 16.76C101.652 17.8267 101.446 18.7667 101.032 19.58C100.632 20.3933 100.052 21.0333 99.2923 21.5C98.5323 21.9533 97.639 22.18 96.6123 22.18ZM96.6123 20.78C97.2923 20.78 97.8857 20.6267 98.3923 20.32C98.899 20 99.2923 19.54 99.5723 18.94C99.8657 18.3267 100.012 17.6 100.012 16.76C100.012 16.1333 99.9323 15.5733 99.7723 15.08C99.6123 14.5733 99.3857 14.1467 99.0923 13.8C98.799 13.44 98.4457 13.1667 98.0323 12.98C97.619 12.7933 97.1457 12.7 96.6123 12.7C95.9323 12.7 95.3323 12.8667 94.8123 13.2C94.3057 13.52 93.9057 13.98 93.6123 14.58C93.3323 15.18 93.1923 15.9133 93.1923 16.78C93.1923 17.3933 93.2657 17.9533 93.4123 18.46C93.5723 18.9533 93.799 19.3733 94.0923 19.72C94.399 20.0667 94.7657 20.3333 95.1923 20.52C95.619 20.6933 96.0923 20.78 96.6123 20.78ZM108.618 22V11.5H110.238V22H108.618ZM109.458 9.7C109.151 9.7 108.904 9.62 108.718 9.46C108.531 9.28667 108.438 9.06 108.438 8.78C108.438 8.5 108.531 8.28 108.718 8.12C108.904 7.96 109.151 7.88 109.458 7.88C109.751 7.88 109.991 7.96 110.178 8.12C110.364 8.28 110.458 8.5 110.458 8.78C110.458 9.06 110.364 9.28667 110.178 9.46C109.991 9.62 109.751 9.7 109.458 9.7ZM113.286 22V11.5H114.826L114.886 13.68H115.006C115.326 12.9067 115.819 12.3267 116.486 11.94C117.152 11.54 117.879 11.34 118.666 11.34C119.212 11.34 119.712 11.42 120.166 11.58C120.632 11.74 121.032 12 121.366 12.36C121.712 12.72 121.979 13.1867 122.166 13.76C122.352 14.32 122.446 15.0067 122.446 15.82V22H120.826V16.14C120.826 15.3533 120.726 14.7067 120.526 14.2C120.339 13.6933 120.046 13.32 119.646 13.08C119.259 12.8267 118.759 12.7 118.146 12.7C117.492 12.7 116.919 12.86 116.426 13.18C115.932 13.5 115.552 13.9333 115.286 14.48C115.019 15.0133 114.886 15.6267 114.886 16.32V22H113.286Z" fill="white"/>
<path d="M3.69 95V91.88H6.33C7.43 91.88 8.2 91.63 8.64 91.13C9.08 90.61 9.3 89.81 9.3 88.73V73.13H13.23V89.03C13.23 90.35 13.02 91.46 12.6 92.36C12.18 93.24 11.54 93.9 10.68 94.34C9.82 94.78 8.72 95 7.38 95H3.69ZM23.1326 95.27C22.1526 95.27 21.2626 95.09 20.4626 94.73C19.6626 94.35 18.9726 93.81 18.3926 93.11C17.8126 92.39 17.3626 91.52 17.0426 90.5C16.7426 89.46 16.5926 88.3 16.5926 87.02C16.5926 85.28 16.8626 83.79 17.4026 82.55C17.9626 81.31 18.7326 80.37 19.7126 79.73C20.6926 79.07 21.8326 78.74 23.1326 78.74C23.9726 78.74 24.7326 78.87 25.4126 79.13C26.1126 79.39 26.7026 79.76 27.1826 80.24C27.6826 80.72 28.0526 81.28 28.2926 81.92H28.5026L28.6526 79.04H32.1926V95H28.6526L28.5026 92.09H28.2926C27.9526 93.05 27.3226 93.82 26.4026 94.4C25.4826 94.98 24.3926 95.27 23.1326 95.27ZM24.4526 92.21C25.3326 92.21 26.0626 92.02 26.6426 91.64C27.2426 91.24 27.6926 90.71 27.9926 90.05C28.2926 89.39 28.4426 88.66 28.4426 87.86V86.15C28.4426 85.33 28.2826 84.59 27.9626 83.93C27.6626 83.27 27.2126 82.75 26.6126 82.37C26.0326 81.99 25.3426 81.8 24.5426 81.8C23.6426 81.8 22.8826 82.01 22.2626 82.43C21.6626 82.83 21.2026 83.42 20.8826 84.2C20.5626 84.98 20.4026 85.92 20.4026 87.02C20.4026 88.08 20.5526 89 20.8526 89.78C21.1726 90.56 21.6326 91.16 22.2326 91.58C22.8326 92 23.5726 92.21 24.4526 92.21ZM40.2312 95L34.6812 79.04H38.7012L41.3712 88.25L42.4812 92.12H42.6312L43.7412 88.25L46.4112 79.04H50.4612L44.9112 95H40.2312ZM58.406 95.27C57.426 95.27 56.536 95.09 55.736 94.73C54.936 94.35 54.246 93.81 53.666 93.11C53.086 92.39 52.636 91.52 52.316 90.5C52.016 89.46 51.866 88.3 51.866 87.02C51.866 85.28 52.136 83.79 52.676 82.55C53.236 81.31 54.006 80.37 54.986 79.73C55.966 79.07 57.106 78.74 58.406 78.74C59.246 78.74 60.006 78.87 60.686 79.13C61.386 79.39 61.976 79.76 62.456 80.24C62.956 80.72 63.326 81.28 63.566 81.92H63.776L63.926 79.04H67.466V95H63.926L63.776 92.09H63.566C63.226 93.05 62.596 93.82 61.676 94.4C60.756 94.98 59.666 95.27 58.406 95.27ZM59.726 92.21C60.606 92.21 61.336 92.02 61.916 91.64C62.516 91.24 62.966 90.71 63.266 90.05C63.566 89.39 63.716 88.66 63.716 87.86V86.15C63.716 85.33 63.556 84.59 63.236 83.93C62.936 83.27 62.486 82.75 61.886 82.37C61.306 81.99 60.616 81.8 59.816 81.8C58.916 81.8 58.156 82.01 57.536 82.43C56.936 82.83 56.476 83.42 56.156 84.2C55.836 84.98 55.676 85.92 55.676 87.02C55.676 88.08 55.826 89 56.126 89.78C56.446 90.56 56.906 91.16 57.506 91.58C58.106 92 58.846 92.21 59.726 92.21ZM79.4046 95.27C77.4446 95.27 75.8046 94.97 74.4846 94.37C73.1846 93.77 72.2046 92.93 71.5446 91.85C70.8846 90.77 70.5446 89.54 70.5246 88.16H74.5746C74.5946 88.98 74.7746 89.69 75.1146 90.29C75.4746 90.89 76.0146 91.36 76.7346 91.7C77.4546 92.04 78.3846 92.21 79.5246 92.21C80.4446 92.21 81.2446 92.1 81.9246 91.88C82.6046 91.66 83.1246 91.32 83.4846 90.86C83.8646 90.38 84.0546 89.78 84.0546 89.06C84.0546 88.5 83.9646 88.04 83.7846 87.68C83.6046 87.3 83.3046 86.99 82.8846 86.75C82.4646 86.49 81.9046 86.27 81.2046 86.09C80.5046 85.91 79.6446 85.73 78.6246 85.55C77.3646 85.35 76.2546 85.09 75.2946 84.77C74.3546 84.43 73.5646 84.02 72.9246 83.54C72.2846 83.06 71.8046 82.48 71.4846 81.8C71.1646 81.1 71.0046 80.27 71.0046 79.31C71.0046 77.99 71.3346 76.85 71.9946 75.89C72.6746 74.93 73.6346 74.19 74.8746 73.67C76.1146 73.13 77.5946 72.86 79.3146 72.86C81.0146 72.86 82.4646 73.13 83.6646 73.67C84.8846 74.21 85.8246 74.97 86.4846 75.95C87.1446 76.91 87.4846 78.03 87.5046 79.31H83.4846C83.4646 78.53 83.2646 77.89 82.8846 77.39C82.5046 76.87 81.9946 76.49 81.3546 76.25C80.7146 76.01 79.9846 75.89 79.1646 75.89C78.3246 75.89 77.6046 76.01 77.0046 76.25C76.4046 76.47 75.9446 76.8 75.6246 77.24C75.3046 77.66 75.1446 78.18 75.1446 78.8C75.1446 79.48 75.3046 80.02 75.6246 80.42C75.9646 80.8 76.5346 81.11 77.3346 81.35C78.1546 81.59 79.2746 81.83 80.6946 82.07C81.6546 82.23 82.5746 82.43 83.4546 82.67C84.3346 82.91 85.1346 83.27 85.8546 83.75C86.5746 84.21 87.1346 84.85 87.5346 85.67C87.9546 86.47 88.1646 87.51 88.1646 88.79C88.1646 90.07 87.8346 91.2 87.1746 92.18C86.5146 93.16 85.5346 93.92 84.2346 94.46C82.9346 95 81.3246 95.27 79.4046 95.27ZM98.688 95.27C97.508 95.27 96.438 95.08 95.478 94.7C94.518 94.3 93.688 93.74 92.988 93.02C92.288 92.28 91.758 91.41 91.398 90.41C91.038 89.39 90.858 88.26 90.858 87.02C90.858 85.78 91.038 84.65 91.398 83.63C91.778 82.61 92.318 81.74 93.018 81.02C93.718 80.28 94.558 79.72 95.538 79.34C96.518 78.94 97.608 78.74 98.808 78.74C100.128 78.74 101.298 78.99 102.318 79.49C103.358 79.97 104.188 80.65 104.808 81.53C105.448 82.39 105.808 83.4 105.888 84.56H102.228C102.108 83.96 101.878 83.46 101.538 83.06C101.218 82.66 100.808 82.36 100.308 82.16C99.828 81.94 99.298 81.83 98.718 81.83C98.058 81.83 97.478 81.96 96.978 82.22C96.478 82.46 96.048 82.81 95.688 83.27C95.348 83.73 95.088 84.28 94.908 84.92C94.728 85.54 94.638 86.24 94.638 87.02C94.638 88.16 94.808 89.11 95.148 89.87C95.488 90.63 95.958 91.21 96.558 91.61C97.178 91.99 97.888 92.18 98.688 92.18C99.368 92.18 99.958 92.06 100.458 91.82C100.978 91.58 101.398 91.25 101.718 90.83C102.038 90.39 102.238 89.89 102.318 89.33H105.948C105.868 90.53 105.498 91.58 104.838 92.48C104.198 93.36 103.348 94.05 102.288 94.55C101.248 95.03 100.048 95.27 98.688 95.27ZM108.926 95V79.04H112.316L112.496 81.71H112.616C112.976 80.69 113.556 79.96 114.356 79.52C115.176 79.06 116.106 78.83 117.146 78.83C117.326 78.83 117.486 78.83 117.626 78.83C117.786 78.83 117.936 78.83 118.076 78.83V82.37C117.956 82.37 117.806 82.37 117.626 82.37C117.466 82.35 117.286 82.34 117.086 82.34C116.126 82.34 115.326 82.5 114.686 82.82C114.046 83.12 113.556 83.56 113.216 84.14C112.896 84.72 112.716 85.43 112.676 86.27V95H108.926ZM120.674 95V79.04H124.424V95H120.674ZM122.564 76.88C121.964 76.88 121.464 76.72 121.064 76.4C120.684 76.06 120.494 75.61 120.494 75.05C120.494 74.47 120.684 74.02 121.064 73.7C121.464 73.38 121.964 73.22 122.564 73.22C123.164 73.22 123.654 73.38 124.034 73.7C124.434 74.02 124.634 74.47 124.634 75.05C124.634 75.61 124.434 76.06 124.034 76.4C123.654 76.72 123.164 76.88 122.564 76.88ZM128.467 100.01V79.04H132.037L132.187 81.95H132.397C132.737 80.99 133.367 80.22 134.287 79.64C135.207 79.04 136.297 78.74 137.557 78.74C138.537 78.74 139.427 78.93 140.227 79.31C141.027 79.69 141.717 80.24 142.297 80.96C142.877 81.66 143.317 82.52 143.617 83.54C143.937 84.56 144.097 85.72 144.097 87.02C144.097 88.74 143.817 90.22 143.257 91.46C142.717 92.7 141.957 93.65 140.977 94.31C139.997 94.97 138.857 95.3 137.557 95.3C136.717 95.3 135.947 95.17 135.247 94.91C134.547 94.63 133.947 94.25 133.447 93.77C132.967 93.29 132.617 92.74 132.397 92.12H132.217V100.01H128.467ZM136.147 92.24C137.027 92.24 137.777 92.03 138.397 91.61C139.017 91.19 139.477 90.59 139.777 89.81C140.097 89.01 140.257 88.08 140.257 87.02C140.257 85.94 140.107 85.01 139.807 84.23C139.507 83.45 139.057 82.85 138.457 82.43C137.857 82.01 137.117 81.8 136.237 81.8C135.357 81.8 134.617 82 134.017 82.4C133.417 82.78 132.967 83.31 132.667 83.99C132.367 84.65 132.217 85.38 132.217 86.18V87.89C132.217 88.71 132.377 89.45 132.697 90.11C133.017 90.75 133.467 91.27 134.047 91.67C134.627 92.05 135.327 92.24 136.147 92.24ZM152.498 95C151.218 95 150.258 94.7 149.618 94.1C148.998 93.48 148.688 92.5 148.688 91.16V82.07H145.748V79.04H148.688V74.54L152.438 74.15V79.04H155.798V82.07H152.438V90.47C152.438 91.01 152.558 91.39 152.798 91.61C153.058 91.81 153.428 91.91 153.908 91.91H155.828V95H152.498Z" fill="#F7DF1E"/>
<path d="M18.045 63.45C15.525 63.45 13.245 63.075 11.205 62.325C9.195 61.575 7.455 60.495 5.985 59.085C4.515 57.645 3.39 55.875 2.61 53.775C1.83 51.675 1.44 49.275 1.44 46.575C1.44 43.875 1.83 41.49 2.61 39.42C3.39 37.32 4.515 35.565 5.985 34.155C7.455 32.715 9.195 31.62 11.205 30.87C13.245 30.12 15.525 29.745 18.045 29.745C20.895 29.745 23.43 30.24 25.65 31.23C27.9 32.22 29.7 33.615 31.05 35.415C32.43 37.185 33.255 39.255 33.525 41.625H25.335C25.095 40.635 24.63 39.765 23.94 39.015C23.28 38.265 22.44 37.68 21.42 37.26C20.43 36.84 19.305 36.63 18.045 36.63C16.365 36.63 14.895 36.99 13.635 37.71C12.405 38.4 11.445 39.48 10.755 40.95C10.065 42.42 9.72 44.295 9.72 46.575C9.72 48.285 9.915 49.785 10.305 51.075C10.725 52.335 11.295 53.37 12.015 54.18C12.735 54.99 13.605 55.59 14.625 55.98C15.645 56.37 16.785 56.565 18.045 56.565C19.275 56.565 20.385 56.355 21.375 55.935C22.395 55.515 23.25 54.93 23.94 54.18C24.66 53.43 25.125 52.545 25.335 51.525H33.525C33.255 53.895 32.415 55.98 31.005 57.78C29.625 59.58 27.825 60.975 25.605 61.965C23.385 62.955 20.865 63.45 18.045 63.45ZM52.7179 63.45C50.1979 63.45 47.9179 63.075 45.8779 62.325C43.8679 61.575 42.1279 60.495 40.6579 59.085C39.1879 57.645 38.0629 55.875 37.2829 53.775C36.5029 51.675 36.1129 49.275 36.1129 46.575C36.1129 43.875 36.5029 41.49 37.2829 39.42C38.0629 37.32 39.1879 35.565 40.6579 34.155C42.1279 32.715 43.8679 31.62 45.8779 30.87C47.9179 30.12 50.1979 29.745 52.7179 29.745C55.2079 29.745 57.4729 30.12 59.5129 30.87C61.5529 31.62 63.3079 32.715 64.7779 34.155C66.2479 35.595 67.3729 37.35 68.1529 39.42C68.9329 41.49 69.3229 43.875 69.3229 46.575C69.3229 49.275 68.9329 51.675 68.1529 53.775C67.3729 55.875 66.2479 57.645 64.7779 59.085C63.3079 60.495 61.5529 61.575 59.5129 62.325C57.4729 63.075 55.2079 63.45 52.7179 63.45ZM52.7179 56.565C54.3979 56.565 55.8679 56.205 57.1279 55.485C58.3879 54.765 59.3479 53.67 60.0079 52.2C60.6979 50.73 61.0429 48.855 61.0429 46.575C61.0429 44.865 60.8479 43.395 60.4579 42.165C60.0679 40.905 59.4979 39.87 58.7479 39.06C58.0279 38.25 57.1579 37.65 56.1379 37.26C55.1179 36.84 53.9779 36.63 52.7179 36.63C51.0379 36.63 49.5679 36.99 48.3079 37.71C47.0779 38.4 46.1179 39.48 45.4279 40.95C44.7379 42.42 44.3929 44.295 44.3929 46.575C44.3929 48.285 44.5879 49.785 44.9779 51.075C45.3979 52.335 45.9679 53.37 46.6879 54.18C47.4079 54.99 48.2779 55.59 49.2979 55.98C50.3179 56.37 51.4579 56.565 52.7179 56.565ZM73.632 63V30.195H83.442L95.502 51.57H95.772L95.502 41.625V30.195H103.242V63H93.972L81.822 41.985H81.552L81.867 51.075V63H73.632ZM116.433 63V36.45H124.533V63H116.433ZM107.073 37.125V30.195H134.118V37.125H107.073ZM132.114 63L142.689 30.195H154.164L164.739 63H156.324L149.754 40.5L148.584 36.27H148.269L147.099 40.5L140.529 63H132.114ZM141.789 56.7L143.544 50.535H153.309L155.064 56.7H141.789ZM172.112 63V36.45H180.212V63H172.112ZM162.752 37.125V30.195H189.797V37.125H162.752ZM207.845 63.45C205.325 63.45 203.045 63.075 201.005 62.325C198.995 61.575 197.255 60.495 195.785 59.085C194.315 57.645 193.19 55.875 192.41 53.775C191.63 51.675 191.24 49.275 191.24 46.575C191.24 43.875 191.63 41.49 192.41 39.42C193.19 37.32 194.315 35.565 195.785 34.155C197.255 32.715 198.995 31.62 201.005 30.87C203.045 30.12 205.325 29.745 207.845 29.745C210.335 29.745 212.6 30.12 214.64 30.87C216.68 31.62 218.435 32.715 219.905 34.155C221.375 35.595 222.5 37.35 223.28 39.42C224.06 41.49 224.45 43.875 224.45 46.575C224.45 49.275 224.06 51.675 223.28 53.775C222.5 55.875 221.375 57.645 219.905 59.085C218.435 60.495 216.68 61.575 214.64 62.325C212.6 63.075 210.335 63.45 207.845 63.45ZM207.845 56.565C209.525 56.565 210.995 56.205 212.255 55.485C213.515 54.765 214.475 53.67 215.135 52.2C215.825 50.73 216.17 48.855 216.17 46.575C216.17 44.865 215.975 43.395 215.585 42.165C215.195 40.905 214.625 39.87 213.875 39.06C213.155 38.25 212.285 37.65 211.265 37.26C210.245 36.84 209.105 36.63 207.845 36.63C206.165 36.63 204.695 36.99 203.435 37.71C202.205 38.4 201.245 39.48 200.555 40.95C199.865 42.42 199.52 44.295 199.52 46.575C199.52 48.285 199.715 49.785 200.105 51.075C200.525 52.335 201.095 53.37 201.815 54.18C202.535 54.99 203.405 55.59 204.425 55.98C205.445 56.37 206.585 56.565 207.845 56.565ZM228.759 63V30.195H246.039C247.359 30.195 248.574 30.315 249.684 30.555C250.824 30.795 251.844 31.155 252.744 31.635C253.644 32.115 254.409 32.73 255.039 33.48C255.669 34.2 256.149 35.055 256.479 36.045C256.839 37.005 257.019 38.1 257.019 39.33C257.019 41.34 256.464 43.05 255.354 44.46C254.274 45.84 252.804 46.77 250.944 47.25V47.565C252.234 47.775 253.269 48.15 254.049 48.69C254.829 49.23 255.399 49.935 255.759 50.805C256.149 51.645 256.344 52.68 256.344 53.91V59.175C256.344 59.775 256.359 60.405 256.389 61.065C256.449 61.695 256.629 62.34 256.929 63H248.784C248.604 62.61 248.469 62.085 248.379 61.425C248.289 60.765 248.244 60.015 248.244 59.175V55.305C248.244 54.465 248.109 53.76 247.839 53.19C247.599 52.62 247.149 52.17 246.489 51.84C245.829 51.51 244.884 51.345 243.654 51.345H236.139V45H244.059C245.769 45 246.969 44.595 247.659 43.785C248.379 42.975 248.739 41.985 248.739 40.815C248.739 40.065 248.619 39.45 248.379 38.97C248.169 38.46 247.854 38.055 247.434 37.755C247.014 37.425 246.519 37.185 245.949 37.035C245.379 36.885 244.749 36.81 244.059 36.81H236.814V63H228.759ZM261.718 63V30.195H286.018V37.08H268.108L269.773 35.37V57.825L268.108 56.115H286.153V63H261.718ZM268.108 49.59V43.155H283.768V49.59H268.108Z" fill="white"/>
</svg>
