<svg width="202" height="49" viewBox="0 0 202 49" fill="none" xmlns="http://www.w3.org/2000/svg">
<path d="M61.4005 44.33C59.8018 44.33 58.4231 43.9853 57.2645 43.296C56.1058 42.592 55.2111 41.602 54.5805 40.326C53.9498 39.0353 53.6345 37.51 53.6345 35.75C53.6345 33.99 53.9425 32.472 54.5585 31.196C55.1891 29.9053 56.0765 28.9153 57.2205 28.226C58.3791 27.522 59.7358 27.17 61.2905 27.17C62.6838 27.17 63.8938 27.434 64.9205 27.962C65.9618 28.49 66.7758 29.2233 67.3625 30.162C67.9491 31.1007 68.2571 32.1787 68.2865 33.396H64.4145C64.2971 32.5747 63.9671 31.9 63.4245 31.372C62.8965 30.844 62.1998 30.58 61.3345 30.58C60.1758 30.58 59.2591 31.0493 58.5845 31.988C57.9245 32.9267 57.5945 34.188 57.5945 35.772C57.5945 37.3267 57.9245 38.5807 58.5845 39.534C59.2591 40.4873 60.2125 40.964 61.4445 40.964C62.1485 40.964 62.7131 40.8173 63.1385 40.524C63.5785 40.2307 63.9085 39.8493 64.1285 39.38C64.3485 38.896 64.4878 38.3827 64.5465 37.84H68.3965C68.3378 39.204 68.0078 40.37 67.4065 41.338C66.8198 42.306 66.0131 43.0467 64.9865 43.56C63.9745 44.0733 62.7791 44.33 61.4005 44.33ZM78.2018 44.33C76.6178 44.33 75.2391 43.9853 74.0658 43.296C72.9071 42.592 72.0051 41.602 71.3598 40.326C70.7291 39.05 70.4138 37.532 70.4138 35.772C70.4138 34.012 70.7291 32.4867 71.3598 31.196C72.0051 29.9053 72.9071 28.9153 74.0658 28.226C75.2391 27.522 76.6178 27.17 78.2018 27.17C79.8004 27.17 81.1791 27.522 82.3378 28.226C83.4964 28.9153 84.3911 29.9053 85.0218 31.196C85.6671 32.4867 85.9898 34.012 85.9898 35.772C85.9898 37.532 85.6671 39.05 85.0218 40.326C84.3911 41.602 83.4964 42.592 82.3378 43.296C81.1791 43.9853 79.8004 44.33 78.2018 44.33ZM78.2018 40.92C79.3751 40.92 80.3064 40.458 80.9958 39.534C81.6851 38.61 82.0298 37.356 82.0298 35.772C82.0298 34.1733 81.6851 32.912 80.9958 31.988C80.3064 31.0493 79.3751 30.58 78.2018 30.58C77.0284 30.58 76.0971 31.0493 75.4078 31.988C74.7184 32.912 74.3738 34.1733 74.3738 35.772C74.3738 37.356 74.7184 38.61 75.4078 39.534C76.0971 40.458 77.0284 40.92 78.2018 40.92ZM95.5324 44.33C94.1244 44.33 92.8851 44.0587 91.8144 43.516C90.7584 42.9587 89.9298 42.1813 89.3284 41.184C88.7418 40.172 88.4484 38.984 88.4484 37.62V27.5H92.3204V37.62C92.3204 38.6613 92.6064 39.49 93.1784 40.106C93.7504 40.722 94.5204 41.03 95.4884 41.03C96.4858 41.03 97.2704 40.722 97.8424 40.106C98.4144 39.49 98.7004 38.6613 98.7004 37.62V27.5H102.572V37.62C102.572 38.984 102.272 40.172 101.67 41.184C101.084 42.1813 100.262 42.9587 99.2064 43.516C98.1504 44.0587 96.9258 44.33 95.5324 44.33ZM116.884 44.33C116.209 44.33 115.637 44.1467 115.168 43.78C114.713 43.4133 114.273 42.8047 113.848 41.954L109.382 32.934C109.367 32.89 109.338 32.868 109.294 32.868C109.265 32.868 109.25 32.8973 109.25 32.956V43.978H105.598V29.964C105.598 29.0547 105.862 28.3653 106.39 27.896C106.933 27.412 107.563 27.17 108.282 27.17C109.015 27.17 109.631 27.3607 110.13 27.742C110.629 28.1233 111.054 28.6807 111.406 29.414L115.586 38.082C115.615 38.126 115.645 38.148 115.674 38.148C115.703 38.1333 115.718 38.0967 115.718 38.038V27.5H119.37V41.822C119.37 42.6727 119.113 43.3033 118.6 43.714C118.101 44.1247 117.529 44.33 116.884 44.33ZM126.111 44V30.932H121.447V27.5H134.647V30.932H129.983V44H126.111ZM136.707 44V27.5H147.927V30.822H140.535V33.924H147.465V37.114H140.535V40.678H147.927V44H136.707ZM150.629 44V27.5H157.185C159.239 27.5 160.815 27.918 161.915 28.754C163.015 29.5753 163.565 30.756 163.565 32.296C163.565 33.2053 163.323 33.9973 162.839 34.672C162.355 35.3467 161.666 35.8673 160.771 36.234C161.783 36.5567 162.465 37.0407 162.817 37.686C163.169 38.3167 163.345 39.1233 163.345 40.106V44H159.561V40.502C159.561 38.8153 158.769 37.972 157.185 37.972H154.457V44H150.629ZM154.457 34.738H157.185C157.963 34.738 158.557 34.562 158.967 34.21C159.393 33.8433 159.605 33.33 159.605 32.67C159.605 32.0687 159.393 31.6067 158.967 31.284C158.557 30.9467 157.963 30.778 157.185 30.778H154.457V34.738ZM172.756 44.33C172.33 44.33 171.89 44.3007 171.436 44.242C170.996 44.1833 170.548 44.1027 170.094 44V40.744C170.387 40.832 170.695 40.9053 171.018 40.964C171.355 41.008 171.685 41.03 172.008 41.03C172.873 41.03 173.511 40.7953 173.922 40.326C174.332 39.8567 174.538 39.1087 174.538 38.082V27.5H178.432V38.104C178.432 40.1427 177.94 41.69 176.958 42.746C175.975 43.802 174.574 44.33 172.756 44.33ZM187.834 44.33C186.543 44.33 185.37 44.11 184.314 43.67C183.272 43.23 182.436 42.592 181.806 41.756C181.19 40.9053 180.882 39.864 180.882 38.632H184.798C184.871 39.4533 185.179 40.062 185.722 40.458C186.264 40.854 186.939 41.052 187.746 41.052C188.538 41.052 189.19 40.9127 189.704 40.634C190.217 40.3553 190.474 39.9667 190.474 39.468C190.474 39.0427 190.32 38.7273 190.012 38.522C189.704 38.3167 189.234 38.1187 188.604 37.928L185.084 36.894C184.394 36.6887 183.742 36.432 183.126 36.124C182.51 35.8013 182.011 35.3613 181.63 34.804C181.263 34.2467 181.08 33.4913 181.08 32.538C181.08 31.438 181.344 30.492 181.872 29.7C182.4 28.8933 183.148 28.27 184.116 27.83C185.084 27.39 186.22 27.17 187.526 27.17C189.418 27.17 190.95 27.632 192.124 28.556C193.312 29.48 193.994 30.7927 194.17 32.494H190.21C189.902 31.1007 188.956 30.404 187.372 30.404C186.609 30.404 186.022 30.5507 185.612 30.844C185.216 31.1373 185.018 31.5333 185.018 32.032C185.018 32.3987 185.142 32.7067 185.392 32.956C185.641 33.2053 186.037 33.4107 186.58 33.572L190.254 34.672C191.662 35.0827 192.688 35.6473 193.334 36.366C193.979 37.0847 194.302 38.0233 194.302 39.182C194.302 40.2087 194.03 41.1107 193.488 41.888C192.96 42.6507 192.212 43.252 191.244 43.692C190.276 44.1173 189.139 44.33 187.834 44.33Z" fill="#57B0F0"/>
<path d="M61.4475 26.375C59.9808 26.375 58.6475 26.125 57.4475 25.625C56.2641 25.125 55.3141 24.4 54.5975 23.45C53.8975 22.4833 53.5475 21.3 53.5475 19.9H57.9975C58.0808 20.8333 58.4308 21.525 59.0475 21.975C59.6641 22.425 60.4308 22.65 61.3475 22.65C62.2475 22.65 62.9891 22.4917 63.5725 22.175C64.1558 21.8583 64.4475 21.4167 64.4475 20.85C64.4475 20.3667 64.2725 20.0083 63.9225 19.775C63.5725 19.5417 63.0391 19.3167 62.3225 19.1L58.3225 17.925C57.5391 17.6917 56.7975 17.4 56.0975 17.05C55.3975 16.6833 54.8308 16.1833 54.3975 15.55C53.9808 14.9167 53.7725 14.0583 53.7725 12.975C53.7725 11.725 54.0725 10.65 54.6725 9.75C55.2725 8.83333 56.1225 8.125 57.2225 7.625C58.3225 7.125 59.6141 6.875 61.0975 6.875C63.2475 6.875 64.9891 7.4 66.3225 8.45C67.6725 9.5 68.4475 10.9917 68.6475 12.925H64.1475C63.7975 11.3417 62.7225 10.55 60.9225 10.55C60.0558 10.55 59.3891 10.7167 58.9225 11.05C58.4725 11.3833 58.2475 11.8333 58.2475 12.4C58.2475 12.8167 58.3891 13.1667 58.6725 13.45C58.9558 13.7333 59.4058 13.9667 60.0225 14.15L64.1975 15.4C65.7975 15.8667 66.9641 16.5083 67.6975 17.325C68.4308 18.1417 68.7975 19.2083 68.7975 20.525C68.7975 21.6917 68.4891 22.7167 67.8725 23.6C67.2725 24.4667 66.4225 25.15 65.3225 25.65C64.2225 26.1333 62.9308 26.375 61.4475 26.375ZM82.2076 26.375C81.3076 26.375 80.5826 26.1083 80.0326 25.575C79.4826 25.025 79.0743 24.2417 78.8076 23.225L76.1576 12.725C76.141 12.6917 76.116 12.6833 76.0826 12.7C76.0493 12.7 76.0326 12.7167 76.0326 12.75V25.975H71.7576V10.75C71.7576 9.51667 72.1076 8.56667 72.8076 7.9C73.5076 7.21667 74.3826 6.875 75.4326 6.875C77.3826 6.875 78.6743 8.06667 79.3076 10.45L82.1076 20.7C82.1243 20.75 82.1493 20.775 82.1826 20.775C82.216 20.775 82.241 20.75 82.2576 20.7L84.9826 10.45C85.2993 9.28333 85.7826 8.4 86.4326 7.8C87.0993 7.18333 87.941 6.875 88.9576 6.875C90.0076 6.875 90.8743 7.21667 91.5576 7.9C92.2576 8.56667 92.6076 9.51667 92.6076 10.75V25.975H88.3576V12.575C88.3576 12.5417 88.341 12.5167 88.3076 12.5C88.2743 12.4833 88.2493 12.5 88.2326 12.55L85.5576 23.225C85.3076 24.2417 84.9076 25.025 84.3576 25.575C83.8243 26.1083 83.1076 26.375 82.2076 26.375ZM94.7432 26L100.143 10.7C100.427 9.88333 100.71 9.19167 100.993 8.625C101.293 8.05833 101.66 7.625 102.093 7.325C102.543 7.025 103.118 6.875 103.818 6.875C104.535 6.875 105.118 7.025 105.568 7.325C106.018 7.625 106.393 8.05833 106.693 8.625C107.01 9.175 107.302 9.85 107.568 10.65L112.818 26H108.368L107.143 22.025H100.418L99.1432 26H94.7432ZM103.768 11.7L101.618 18.325H105.968L103.918 11.7C103.902 11.6333 103.877 11.6 103.843 11.6C103.81 11.6 103.785 11.6333 103.768 11.7ZM114.946 26V7.25H122.396C124.729 7.25 126.521 7.725 127.771 8.675C129.021 9.60833 129.646 10.95 129.646 12.7C129.646 13.7333 129.371 14.6333 128.821 15.4C128.271 16.1667 127.488 16.7583 126.471 17.175C127.621 17.5417 128.396 18.0917 128.796 18.825C129.196 19.5417 129.396 20.4583 129.396 21.575V26H125.096V22.025C125.096 20.1083 124.196 19.15 122.396 19.15H119.296V26H114.946ZM119.296 15.475H122.396C123.279 15.475 123.954 15.275 124.421 14.875C124.904 14.4583 125.146 13.875 125.146 13.125C125.146 12.4417 124.904 11.9167 124.421 11.55C123.954 11.1667 123.279 10.975 122.396 10.975H119.296V15.475ZM136.303 26V11.15H131.003V7.25H146.003V11.15H140.703V26H136.303Z" fill="black"/>
<rect x="3.05176e-05" y="2" width="45.1067" height="46.2875" rx="10" fill="url(#paint0_linear_25_160)"/>
<path d="M12.333 35.695V29.395H6.10298V25.37H12.333V19.07H16.498V25.37H22.728V29.395H16.498V35.695H12.333ZM31.3065 40V23.06H24.9365V19.14H25.9865C27.6665 19.14 28.9849 18.7433 29.9415 17.95C30.9215 17.1333 31.4699 16.0717 31.5865 14.765H36.4515V40H31.3065Z" fill="white"/>
<defs>
<linearGradient id="paint0_linear_25_160" x1="22.5534" y1="48.2875" x2="22.5534" y2="2" gradientUnits="userSpaceOnUse">
<stop stop-color="#1EE1F7"/>
<stop offset="1" stop-color="#8785EA"/>
</linearGradient>
</defs>
</svg>
